<mxfile host="65bd71144e">
    <diagram id="NaBj2fc09aznuBRqn-sO" name="Page-1">
        <mxGraphModel dx="4909" dy="2857" grid="1" gridSize="10" guides="1" tooltips="1" connect="1" arrows="1" fold="1" page="1" pageScale="1" pageWidth="850" pageHeight="1100" math="0" shadow="0">
            <root>
                <mxCell id="0"/>
                <mxCell id="1" parent="0"/>
                <mxCell id="49" value="" style="rounded=0;whiteSpace=wrap;html=1;fillColor=default;" vertex="1" parent="1">
                    <mxGeometry x="-280" y="-280" width="680" height="1200" as="geometry"/>
                </mxCell>
                <mxCell id="76" value="" style="rounded=0;whiteSpace=wrap;html=1;fontSize=18;strokeColor=#3A5431;fillColor=#6d8764;fontColor=#ffffff;dashed=1;" vertex="1" parent="1">
                    <mxGeometry x="40" y="-240" width="1300" height="440" as="geometry"/>
                </mxCell>
                <mxCell id="50" value="" style="rounded=0;whiteSpace=wrap;html=1;" vertex="1" parent="1">
                    <mxGeometry x="-280" y="-720" width="680" height="360" as="geometry"/>
                </mxCell>
                <mxCell id="2" value="" style="ellipse;whiteSpace=wrap;html=1;fillColor=#3399FF;fontColor=#ffffff;strokeColor=#314354;fontSize=18;" vertex="1" parent="1">
                    <mxGeometry x="80" y="-120" width="240" height="120" as="geometry"/>
                </mxCell>
                <mxCell id="3" value="diffuseColor" style="text;strokeColor=none;fillColor=none;align=left;verticalAlign=middle;spacingLeft=4;spacingRight=4;overflow=hidden;points=[[0,0.5],[1,0.5]];portConstraint=eastwest;rotatable=0;fontSize=18;" vertex="1" parent="1">
                    <mxGeometry x="133" y="-110" width="80" height="30" as="geometry"/>
                </mxCell>
                <mxCell id="4" value="emissiveColor" style="text;strokeColor=none;fillColor=none;align=left;verticalAlign=middle;spacingLeft=4;spacingRight=4;overflow=hidden;points=[[0,0.5],[1,0.5]];portConstraint=eastwest;rotatable=0;fontSize=18;" vertex="1" parent="1">
                    <mxGeometry x="93" y="-90" width="80" height="30" as="geometry"/>
                </mxCell>
                <mxCell id="6" value="albedoColor" style="text;strokeColor=none;fillColor=none;align=left;verticalAlign=middle;spacingLeft=4;spacingRight=4;overflow=hidden;points=[[0,0.5],[1,0.5]];portConstraint=eastwest;rotatable=0;fontSize=18;" vertex="1" parent="1">
                    <mxGeometry x="213" y="-90" width="80" height="30" as="geometry"/>
                </mxCell>
                <mxCell id="7" value="bumpTexture" style="text;strokeColor=none;fillColor=none;align=left;verticalAlign=middle;spacingLeft=4;spacingRight=4;overflow=hidden;points=[[0,0.5],[1,0.5]];portConstraint=eastwest;rotatable=0;fontSize=18;" vertex="1" parent="1">
                    <mxGeometry x="93" y="-60" width="80" height="30" as="geometry"/>
                </mxCell>
                <mxCell id="8" value="emissionTexture" style="text;strokeColor=none;fillColor=none;align=left;verticalAlign=middle;spacingLeft=4;spacingRight=4;overflow=hidden;points=[[0,0.5],[1,0.5]];portConstraint=eastwest;rotatable=0;fontSize=18;" vertex="1" parent="1">
                    <mxGeometry x="183" y="-70" width="110" height="30" as="geometry"/>
                </mxCell>
                <mxCell id="11" value="alpha" style="text;strokeColor=none;fillColor=none;align=left;verticalAlign=middle;spacingLeft=4;spacingRight=4;overflow=hidden;points=[[0,0.5],[1,0.5]];portConstraint=eastwest;rotatable=0;fontSize=18;" vertex="1" parent="1">
                    <mxGeometry x="173" y="-40" width="80" height="30" as="geometry"/>
                </mxCell>
                <mxCell id="12" value="" style="ellipse;whiteSpace=wrap;html=1;fillColor=default;fontColor=#ffffff;strokeColor=#314354;fontSize=18;" vertex="1" parent="1">
                    <mxGeometry x="440" y="-160" width="200" height="80" as="geometry"/>
                </mxCell>
                <mxCell id="13" value="vec4" style="text;strokeColor=none;fillColor=none;align=left;verticalAlign=middle;spacingLeft=4;spacingRight=4;overflow=hidden;points=[[0,0.5],[1,0.5]];portConstraint=eastwest;rotatable=0;fontSize=18;" vertex="1" parent="1">
                    <mxGeometry x="470" y="-120" width="80" height="30" as="geometry"/>
                </mxCell>
                <mxCell id="14" value="mat4" style="text;strokeColor=none;fillColor=none;align=left;verticalAlign=middle;spacingLeft=4;spacingRight=4;overflow=hidden;points=[[0,0.5],[1,0.5]];portConstraint=eastwest;rotatable=0;fontSize=18;" vertex="1" parent="1">
                    <mxGeometry x="480" y="-150" width="80" height="30" as="geometry"/>
                </mxCell>
                <mxCell id="15" value="vec2" style="text;strokeColor=none;fillColor=none;align=left;verticalAlign=middle;spacingLeft=4;spacingRight=4;overflow=hidden;points=[[0,0.5],[1,0.5]];portConstraint=eastwest;rotatable=0;fontSize=18;" vertex="1" parent="1">
                    <mxGeometry x="510" y="-120" width="80" height="30" as="geometry"/>
                </mxCell>
                <mxCell id="16" value="float" style="text;strokeColor=none;fillColor=none;align=left;verticalAlign=middle;spacingLeft=4;spacingRight=4;overflow=hidden;points=[[0,0.5],[1,0.5]];portConstraint=eastwest;rotatable=0;fontSize=18;" vertex="1" parent="1">
                    <mxGeometry x="550" y="-120" width="80" height="30" as="geometry"/>
                </mxCell>
                <mxCell id="17" value="" style="ellipse;whiteSpace=wrap;html=1;fillColor=default;fontColor=#ffffff;strokeColor=#314354;fontSize=18;" vertex="1" parent="1">
                    <mxGeometry x="440" y="-40" width="200" height="80" as="geometry"/>
                </mxCell>
                <mxCell id="18" value="texture" style="text;strokeColor=none;fillColor=none;align=left;verticalAlign=middle;spacingLeft=4;spacingRight=4;overflow=hidden;points=[[0,0.5],[1,0.5]];portConstraint=eastwest;rotatable=0;fontSize=18;" vertex="1" parent="1">
                    <mxGeometry x="490" y="-30" width="80" height="30" as="geometry"/>
                </mxCell>
                <mxCell id="19" value="sampler" style="text;strokeColor=none;fillColor=none;align=left;verticalAlign=middle;spacingLeft=4;spacingRight=4;overflow=hidden;points=[[0,0.5],[1,0.5]];portConstraint=eastwest;rotatable=0;fontSize=18;" vertex="1" parent="1">
                    <mxGeometry x="520" width="80" height="30" as="geometry"/>
                </mxCell>
                <mxCell id="20" value="mat2" style="text;strokeColor=none;fillColor=none;align=left;verticalAlign=middle;spacingLeft=4;spacingRight=4;overflow=hidden;points=[[0,0.5],[1,0.5]];portConstraint=eastwest;rotatable=0;fontSize=18;" vertex="1" parent="1">
                    <mxGeometry x="520" y="-150" width="80" height="30" as="geometry"/>
                </mxCell>
                <mxCell id="21" value="int" style="text;strokeColor=none;fillColor=none;align=left;verticalAlign=middle;spacingLeft=4;spacingRight=4;overflow=hidden;points=[[0,0.5],[1,0.5]];portConstraint=eastwest;rotatable=0;fontSize=18;" vertex="1" parent="1">
                    <mxGeometry x="570" y="-150" width="80" height="30" as="geometry"/>
                </mxCell>
                <mxCell id="22" value="uint" style="text;strokeColor=none;fillColor=none;align=left;verticalAlign=middle;spacingLeft=4;spacingRight=4;overflow=hidden;points=[[0,0.5],[1,0.5]];portConstraint=eastwest;rotatable=0;fontSize=18;" vertex="1" parent="1">
                    <mxGeometry x="590" y="-130" width="80" height="30" as="geometry"/>
                </mxCell>
                <mxCell id="23" value="" style="ellipse;whiteSpace=wrap;html=1;fillColor=#60a917;fontColor=#ffffff;strokeColor=#2D7600;fontSize=18;" vertex="1" parent="1">
                    <mxGeometry x="80" y="560" width="240" height="120" as="geometry"/>
                </mxCell>
                <mxCell id="24" value="Fog" style="text;strokeColor=none;fillColor=none;align=left;verticalAlign=middle;spacingLeft=4;spacingRight=4;overflow=hidden;points=[[0,0.5],[1,0.5]];portConstraint=eastwest;rotatable=0;fontSize=18;" vertex="1" parent="1">
                    <mxGeometry x="150" y="570" width="80" height="30" as="geometry"/>
                </mxCell>
                <mxCell id="25" value="Time" style="text;strokeColor=none;fillColor=none;align=left;verticalAlign=middle;spacingLeft=4;spacingRight=4;overflow=hidden;points=[[0,0.5],[1,0.5]];portConstraint=eastwest;rotatable=0;fontSize=18;" vertex="1" parent="1">
                    <mxGeometry x="150" y="590" width="80" height="30" as="geometry"/>
                </mxCell>
                <mxCell id="26" value="AmbientColor" style="text;strokeColor=none;fillColor=none;align=left;verticalAlign=middle;spacingLeft=4;spacingRight=4;overflow=hidden;points=[[0,0.5],[1,0.5]];portConstraint=eastwest;rotatable=0;fontSize=18;" vertex="1" parent="1">
                    <mxGeometry x="150" y="610" width="85" height="30" as="geometry"/>
                </mxCell>
                <mxCell id="27" value="" style="ellipse;whiteSpace=wrap;html=1;fillColor=#60a917;fontColor=#ffffff;strokeColor=#2D7600;fontSize=18;" vertex="1" parent="1">
                    <mxGeometry x="80" y="720" width="240" height="160" as="geometry"/>
                </mxCell>
                <mxCell id="28" value="directLight" style="text;strokeColor=none;fillColor=none;align=left;verticalAlign=middle;spacingLeft=4;spacingRight=4;overflow=hidden;points=[[0,0.5],[1,0.5]];portConstraint=eastwest;rotatable=0;fontSize=18;" vertex="1" parent="1">
                    <mxGeometry x="150" y="730" width="80" height="30" as="geometry"/>
                </mxCell>
                <mxCell id="29" value="PointLight" style="text;strokeColor=none;fillColor=none;align=left;verticalAlign=middle;spacingLeft=4;spacingRight=4;overflow=hidden;points=[[0,0.5],[1,0.5]];portConstraint=eastwest;rotatable=0;fontSize=18;" vertex="1" parent="1">
                    <mxGeometry x="130" y="760" width="80" height="30" as="geometry"/>
                </mxCell>
                <mxCell id="30" value="SpotLight" style="text;strokeColor=none;fillColor=none;align=left;verticalAlign=middle;spacingLeft=4;spacingRight=4;overflow=hidden;points=[[0,0.5],[1,0.5]];portConstraint=eastwest;rotatable=0;fontSize=18;" vertex="1" parent="1">
                    <mxGeometry x="110" y="785" width="80" height="30" as="geometry"/>
                </mxCell>
                <mxCell id="31" value="ShadowMap" style="text;strokeColor=none;fillColor=none;align=left;verticalAlign=middle;spacingLeft=4;spacingRight=4;overflow=hidden;points=[[0,0.5],[1,0.5]];portConstraint=eastwest;rotatable=0;fontSize=18;" vertex="1" parent="1">
                    <mxGeometry x="140" y="820" width="80" height="30" as="geometry"/>
                </mxCell>
                <mxCell id="32" value="" style="ellipse;whiteSpace=wrap;html=1;fillColor=#60a917;fontColor=#ffffff;strokeColor=#2D7600;fontSize=18;" vertex="1" parent="1">
                    <mxGeometry x="80" y="240" width="240" height="120" as="geometry"/>
                </mxCell>
                <mxCell id="33" value="ModelMatrix" style="text;strokeColor=none;fillColor=none;align=left;verticalAlign=middle;spacingLeft=4;spacingRight=4;overflow=hidden;points=[[0,0.5],[1,0.5]];portConstraint=eastwest;rotatable=0;fontSize=18;" vertex="1" parent="1">
                    <mxGeometry x="150" y="260" width="80" height="30" as="geometry"/>
                </mxCell>
                <mxCell id="34" value="" style="ellipse;whiteSpace=wrap;html=1;fillColor=#60a917;fontColor=#ffffff;strokeColor=#2D7600;fontSize=18;" vertex="1" parent="1">
                    <mxGeometry x="80" y="400" width="240" height="120" as="geometry"/>
                </mxCell>
                <mxCell id="35" value="CameraPosition" style="text;strokeColor=none;fillColor=none;align=left;verticalAlign=middle;spacingLeft=4;spacingRight=4;overflow=hidden;points=[[0,0.5],[1,0.5]];portConstraint=eastwest;rotatable=0;fontSize=18;" vertex="1" parent="1">
                    <mxGeometry x="110" y="410" width="100" height="30" as="geometry"/>
                </mxCell>
                <mxCell id="36" value="ViewMatrix" style="text;strokeColor=none;fillColor=none;align=left;verticalAlign=middle;spacingLeft=4;spacingRight=4;overflow=hidden;points=[[0,0.5],[1,0.5]];portConstraint=eastwest;rotatable=0;fontSize=18;" vertex="1" parent="1">
                    <mxGeometry x="100" y="450" width="100" height="30" as="geometry"/>
                </mxCell>
                <mxCell id="37" value="ProjectMatrix" style="text;strokeColor=none;fillColor=none;align=left;verticalAlign=middle;spacingLeft=4;spacingRight=4;overflow=hidden;points=[[0,0.5],[1,0.5]];portConstraint=eastwest;rotatable=0;fontSize=18;" vertex="1" parent="1">
                    <mxGeometry x="160" y="480" width="100" height="30" as="geometry"/>
                </mxCell>
                <mxCell id="38" value="CameraDirection" style="text;strokeColor=none;fillColor=none;align=left;verticalAlign=middle;spacingLeft=4;spacingRight=4;overflow=hidden;points=[[0,0.5],[1,0.5]];portConstraint=eastwest;rotatable=0;fontSize=18;" vertex="1" parent="1">
                    <mxGeometry x="170" y="430" width="100" height="30" as="geometry"/>
                </mxCell>
                <mxCell id="39" value="ClipPlanes" style="text;strokeColor=none;fillColor=none;align=left;verticalAlign=middle;spacingLeft=4;spacingRight=4;overflow=hidden;points=[[0,0.5],[1,0.5]];portConstraint=eastwest;rotatable=0;fontSize=18;" vertex="1" parent="1">
                    <mxGeometry x="110" y="300" width="80" height="30" as="geometry"/>
                </mxCell>
                <mxCell id="41" value="" style="ellipse;whiteSpace=wrap;html=1;fillColor=#60a917;fontColor=#ffffff;strokeColor=#2D7600;fontSize=18;" vertex="1" parent="1">
                    <mxGeometry x="80" y="-600" width="240" height="120" as="geometry"/>
                </mxCell>
                <mxCell id="42" value="Position" style="text;strokeColor=none;fillColor=none;align=left;verticalAlign=middle;spacingLeft=4;spacingRight=4;overflow=hidden;points=[[0,0.5],[1,0.5]];portConstraint=eastwest;rotatable=0;fontSize=18;" vertex="1" parent="1">
                    <mxGeometry x="150" y="-590" width="80" height="30" as="geometry"/>
                </mxCell>
                <mxCell id="43" value="Normal" style="text;strokeColor=none;fillColor=none;align=left;verticalAlign=middle;spacingLeft=4;spacingRight=4;overflow=hidden;points=[[0,0.5],[1,0.5]];portConstraint=eastwest;rotatable=0;fontSize=18;" vertex="1" parent="1">
                    <mxGeometry x="110" y="-570" width="80" height="30" as="geometry"/>
                </mxCell>
                <mxCell id="44" value="UV" style="text;strokeColor=none;fillColor=none;align=left;verticalAlign=middle;spacingLeft=4;spacingRight=4;overflow=hidden;points=[[0,0.5],[1,0.5]];portConstraint=eastwest;rotatable=0;fontSize=18;" vertex="1" parent="1">
                    <mxGeometry x="210" y="-590" width="80" height="30" as="geometry"/>
                </mxCell>
                <mxCell id="45" value="Color" style="text;strokeColor=none;fillColor=none;align=left;verticalAlign=middle;spacingLeft=4;spacingRight=4;overflow=hidden;points=[[0,0.5],[1,0.5]];portConstraint=eastwest;rotatable=0;fontSize=18;" vertex="1" parent="1">
                    <mxGeometry x="190" y="-565" width="80" height="30" as="geometry"/>
                </mxCell>
                <mxCell id="46" value="instanceXXX" style="text;strokeColor=none;fillColor=none;align=left;verticalAlign=middle;spacingLeft=4;spacingRight=4;overflow=hidden;points=[[0,0.5],[1,0.5]];portConstraint=eastwest;rotatable=0;fontSize=18;" vertex="1" parent="1">
                    <mxGeometry x="110" y="-535" width="110" height="30" as="geometry"/>
                </mxCell>
                <mxCell id="47" value="JointIndices" style="text;strokeColor=none;fillColor=none;align=left;verticalAlign=middle;spacingLeft=4;spacingRight=4;overflow=hidden;points=[[0,0.5],[1,0.5]];portConstraint=eastwest;rotatable=0;fontSize=18;" vertex="1" parent="1">
                    <mxGeometry x="220" y="-540" width="100" height="30" as="geometry"/>
                </mxCell>
                <mxCell id="48" value="JointWeights" style="text;strokeColor=none;fillColor=none;align=left;verticalAlign=middle;spacingLeft=4;spacingRight=4;overflow=hidden;points=[[0,0.5],[1,0.5]];portConstraint=eastwest;rotatable=0;fontSize=18;" vertex="1" parent="1">
                    <mxGeometry x="160" y="-510" width="110" height="30" as="geometry"/>
                </mxCell>
                <mxCell id="51" value="attribute" style="text;strokeColor=none;fillColor=none;align=left;verticalAlign=middle;spacingLeft=4;spacingRight=4;overflow=hidden;points=[[0,0.5],[1,0.5]];portConstraint=eastwest;rotatable=0;fontSize=42;" vertex="1" parent="1">
                    <mxGeometry x="-560" y="-480" width="200" height="80" as="geometry"/>
                </mxCell>
                <mxCell id="52" value="uniform" style="text;strokeColor=none;fillColor=none;align=left;verticalAlign=middle;spacingLeft=4;spacingRight=4;overflow=hidden;points=[[0,0.5],[1,0.5]];portConstraint=eastwest;rotatable=0;fontSize=42;" vertex="1" parent="1">
                    <mxGeometry x="-560" y="-160" width="200" height="80" as="geometry"/>
                </mxCell>
                <mxCell id="53" value="" style="shape=flexArrow;endArrow=classic;html=1;fontSize=18;" edge="1" parent="1">
                    <mxGeometry width="50" height="50" relative="1" as="geometry">
                        <mxPoint x="640" y="-61" as="sourcePoint"/>
                        <mxPoint x="730" y="-61" as="targetPoint"/>
                    </mxGeometry>
                </mxCell>
                <mxCell id="55" value="mat4, mat4, mat4, mat4..." style="shape=parallelogram;perimeter=parallelogramPerimeter;whiteSpace=wrap;html=1;fixedSize=1;fontSize=18;fillColor=#60a917;fontColor=#ffffff;strokeColor=#2D7600;" vertex="1" parent="1">
                    <mxGeometry x="760" y="-200" width="280" height="40" as="geometry"/>
                </mxCell>
                <mxCell id="56" value="mat2, mat2, mat2, mat2..." style="shape=parallelogram;perimeter=parallelogramPerimeter;whiteSpace=wrap;html=1;fixedSize=1;fontSize=18;fillColor=#60a917;fontColor=#ffffff;strokeColor=#2D7600;" vertex="1" parent="1">
                    <mxGeometry x="760" y="-160" width="280" height="40" as="geometry"/>
                </mxCell>
                <mxCell id="57" value="......" style="shape=parallelogram;perimeter=parallelogramPerimeter;whiteSpace=wrap;html=1;fixedSize=1;fontSize=18;fillColor=#60a917;fontColor=#ffffff;strokeColor=#2D7600;" vertex="1" parent="1">
                    <mxGeometry x="760" y="-120" width="280" height="40" as="geometry"/>
                </mxCell>
                <mxCell id="58" value="uint, uint, uint, uint..." style="shape=parallelogram;perimeter=parallelogramPerimeter;whiteSpace=wrap;html=1;fixedSize=1;fontSize=18;fillColor=#60a917;fontColor=#ffffff;strokeColor=#2D7600;" vertex="1" parent="1">
                    <mxGeometry x="760" y="-80" width="280" height="40" as="geometry"/>
                </mxCell>
                <mxCell id="59" value="defines" style="ellipse;whiteSpace=wrap;html=1;fontSize=18;fillColor=#3399FF;fontColor=#ffffff;strokeColor=#314354;" vertex="1" parent="1">
                    <mxGeometry x="80" y="80" width="240" height="80" as="geometry"/>
                </mxCell>
                <mxCell id="60" value="texture" style="shape=parallelogram;perimeter=parallelogramPerimeter;whiteSpace=wrap;html=1;fixedSize=1;fontSize=18;fillColor=#60a917;fontColor=#ffffff;strokeColor=#2D7600;" vertex="1" parent="1">
                    <mxGeometry x="760" width="160" height="40" as="geometry"/>
                </mxCell>
                <mxCell id="61" value="sampler" style="shape=parallelogram;perimeter=parallelogramPerimeter;whiteSpace=wrap;html=1;fixedSize=1;fontSize=18;fillColor=#60a917;fontColor=#ffffff;strokeColor=#2D7600;" vertex="1" parent="1">
                    <mxGeometry x="920" width="160" height="40" as="geometry"/>
                </mxCell>
                <mxCell id="62" value="..." style="shape=parallelogram;perimeter=parallelogramPerimeter;whiteSpace=wrap;html=1;fixedSize=1;fontSize=18;fillColor=#60a917;fontColor=#ffffff;strokeColor=#2D7600;" vertex="1" parent="1">
                    <mxGeometry x="1080" width="160" height="40" as="geometry"/>
                </mxCell>
                <mxCell id="64" value="64个有序的槽位标识" style="ellipse;whiteSpace=wrap;html=1;fontSize=18;fillColor=default;fontColor=#ffffff;strokeColor=#314354;" vertex="1" parent="1">
                    <mxGeometry x="440" y="80" width="200" height="80" as="geometry"/>
                </mxCell>
                <mxCell id="65" value="" style="shape=flexArrow;endArrow=classic;html=1;fontSize=18;" edge="1" parent="1">
                    <mxGeometry width="50" height="50" relative="1" as="geometry">
                        <mxPoint x="640" y="119.5" as="sourcePoint"/>
                        <mxPoint x="730" y="119.5" as="targetPoint"/>
                    </mxGeometry>
                </mxCell>
                <mxCell id="66" value="defines" style="shape=parallelogram;perimeter=parallelogramPerimeter;whiteSpace=wrap;html=1;fixedSize=1;fontSize=18;fillColor=#60a917;fontColor=#ffffff;strokeColor=#2D7600;" vertex="1" parent="1">
                    <mxGeometry x="760" y="80" width="160" height="40" as="geometry"/>
                </mxCell>
                <mxCell id="69" style="edgeStyle=none;html=1;fontSize=18;" edge="1" parent="1" source="68" target="50">
                    <mxGeometry relative="1" as="geometry"/>
                </mxCell>
                <mxCell id="68" value="&lt;h1&gt;顶点数据从Mesh数据声明获取&lt;/h1&gt;&lt;p style=&quot;font-size: 18px&quot;&gt;&lt;font style=&quot;font-size: 18px&quot;&gt;1. 从声明即可生成 Shader 中 Attribute 相关代码&lt;/font&gt;&lt;/p&gt;&lt;p style=&quot;font-size: 18px&quot;&gt;&lt;font style=&quot;font-size: 18px&quot;&gt;2. Shader 手动代码中使用约定好的顶点数据的变量名&lt;/font&gt;&lt;/p&gt;&lt;p style=&quot;font-size: 18px&quot;&gt;&lt;font style=&quot;font-size: 18px&quot;&gt;3. 顶点数据类型通过引擎内部约定&lt;/font&gt;&lt;/p&gt;&lt;p style=&quot;font-size: 18px&quot;&gt;&lt;font style=&quot;font-size: 18px&quot;&gt;4. 实例化，实例化的attribute 在自动生成代码时作用到 attribute数据, 手动代码只关心attribute数据&lt;/font&gt;&lt;/p&gt;" style="text;html=1;strokeColor=default;fillColor=none;spacing=5;spacingTop=-20;whiteSpace=wrap;overflow=hidden;rounded=0;fontSize=12;" vertex="1" parent="1">
                    <mxGeometry x="-1240" y="-880" width="680" height="280" as="geometry"/>
                </mxCell>
                <mxCell id="70" value="" style="rounded=0;whiteSpace=wrap;html=1;fontSize=18;strokeColor=#2D7600;fillColor=#60a917;fontColor=#ffffff;" vertex="1" parent="1">
                    <mxGeometry x="160" y="-1040" width="120" height="60" as="geometry"/>
                </mxCell>
                <mxCell id="71" value="表示引擎内部约定的内容, 也即引擎通过改功能" style="text;html=1;strokeColor=none;fillColor=none;align=left;verticalAlign=middle;whiteSpace=wrap;rounded=0;fontSize=18;" vertex="1" parent="1">
                    <mxGeometry x="310" y="-1025" width="470" height="30" as="geometry"/>
                </mxCell>
                <mxCell id="72" value="" style="rounded=0;whiteSpace=wrap;html=1;fontSize=18;strokeColor=#314354;fillColor=#3399FF;fontColor=#ffffff;" vertex="1" parent="1">
                    <mxGeometry x="160" y="-960" width="120" height="60" as="geometry"/>
                </mxCell>
                <mxCell id="73" value="表示引擎内部不约定的内容，外部完全自定义的内容" style="text;html=1;strokeColor=none;fillColor=none;align=left;verticalAlign=middle;whiteSpace=wrap;rounded=0;fontSize=18;" vertex="1" parent="1">
                    <mxGeometry x="310" y="-945" width="470" height="30" as="geometry"/>
                </mxCell>
                <mxCell id="75" style="edgeStyle=none;html=1;fontSize=18;entryX=0;entryY=0.5;entryDx=0;entryDy=0;" edge="1" parent="1" source="74" target="76">
                    <mxGeometry relative="1" as="geometry">
                        <mxPoint x="-670" y="120" as="targetPoint"/>
                    </mxGeometry>
                </mxCell>
                <mxCell id="74" value="&lt;h1&gt;手动拓展的效果代码&lt;/h1&gt;&lt;p style=&quot;font-size: 18px&quot;&gt;&lt;font style=&quot;font-size: 18px&quot;&gt;1. 将 uniform 通过使用各数据类型的描述列表方式声明&lt;/font&gt;&lt;/p&gt;&lt;p style=&quot;font-size: 18px&quot;&gt;&lt;font style=&quot;font-size: 18px&quot;&gt;2. 引擎自动排布 binding 数据结构, 自动管理更新 绑定 缓存&lt;/font&gt;&lt;/p&gt;&lt;p style=&quot;font-size: 18px&quot;&gt;&lt;font style=&quot;font-size: 18px&quot;&gt;3. 引擎自动生成 binding shader 代码&lt;/font&gt;&lt;/p&gt;&lt;p style=&quot;font-size: 18px&quot;&gt;&lt;font style=&quot;font-size: 18px&quot;&gt;4. 外部可以通过声明时对应数值名称的类型和序号进行更新&lt;/font&gt;&lt;/p&gt;" style="text;html=1;strokeColor=default;fillColor=none;spacing=5;spacingTop=-20;whiteSpace=wrap;overflow=hidden;rounded=0;fontSize=12;" vertex="1" parent="1">
                    <mxGeometry x="-1480" y="-240" width="680" height="230" as="geometry"/>
                </mxCell>
                <mxCell id="78" style="edgeStyle=none;html=1;entryX=0;entryY=0.75;entryDx=0;entryDy=0;fontSize=18;" edge="1" parent="1" source="77" target="76">
                    <mxGeometry relative="1" as="geometry"/>
                </mxCell>
                <mxCell id="77" value="&lt;h1&gt;手动拓展效果的Define&lt;/h1&gt;&lt;p&gt;1. 固定最大数量&lt;/p&gt;&lt;p&gt;2. shader 声明时提供 define 列表&lt;/p&gt;&lt;p&gt;3. 应当不影响 Uniform 的结构，只影响逻辑; 否则应当声明为另一 shader&lt;/p&gt;&lt;p&gt;&lt;br&gt;&lt;/p&gt;" style="text;html=1;strokeColor=default;fillColor=none;spacing=5;spacingTop=-20;whiteSpace=wrap;overflow=hidden;rounded=0;fontSize=18;" vertex="1" parent="1">
                    <mxGeometry x="-1160" y="40" width="640" height="200" as="geometry"/>
                </mxCell>
                <mxCell id="79" value="&lt;h1&gt;内部提供的功能性Uniform&lt;/h1&gt;&lt;p&gt;1. 相机信息&lt;/p&gt;&lt;p&gt;2. 场景状态&lt;/p&gt;&lt;p&gt;3. 模型信息&lt;/p&gt;&lt;p&gt;4. 光照 &amp;amp; 阴影&lt;/p&gt;" style="text;html=1;strokeColor=default;fillColor=none;spacing=5;spacingTop=-20;whiteSpace=wrap;overflow=hidden;rounded=0;fontSize=18;" vertex="1" parent="1">
                    <mxGeometry x="-1160" y="400" width="720" height="240" as="geometry"/>
                </mxCell>
                <mxCell id="80" value="&lt;h1&gt;内部提供的光照&lt;/h1&gt;&lt;p&gt;1. 光照使用 uniform 数组&lt;/p&gt;&lt;p&gt;2. 场景状态&lt;/p&gt;&lt;p&gt;3. 模型信息&lt;/p&gt;&lt;p&gt;&lt;br&gt;&lt;/p&gt;" style="text;html=1;strokeColor=default;fillColor=none;spacing=5;spacingTop=-20;whiteSpace=wrap;overflow=hidden;rounded=0;fontSize=18;" vertex="1" parent="1">
                    <mxGeometry x="-1160" y="680" width="720" height="200" as="geometry"/>
                </mxCell>
                <mxCell id="81" value="" style="rounded=0;whiteSpace=wrap;html=1;fontSize=18;strokeColor=default;fillColor=none;" vertex="1" parent="1">
                    <mxGeometry x="1480" y="-760" width="1760" height="2000" as="geometry"/>
                </mxCell>
                <mxCell id="83" value="&lt;h1&gt;&lt;br&gt;&lt;/h1&gt;&lt;p&gt;&lt;span style=&quot;background-color: rgb(0 , 127 , 255)&quot;&gt;// defines&lt;/span&gt;&lt;/p&gt;&lt;p&gt;......&lt;/p&gt;&lt;p&gt;// attributes&lt;/p&gt;&lt;p&gt;location(0) vec3 VA_POSITION;&lt;/p&gt;&lt;p&gt;location(1) vec2 VA_UV;&lt;/p&gt;&lt;p&gt;......&lt;/p&gt;&lt;p&gt;&lt;br&gt;&lt;/p&gt;&lt;p&gt;// Uniform - Scene - camera&lt;/p&gt;&lt;p&gt;layout(set = 0, binding = 0) uniform Camera {&lt;span&gt;...&lt;/span&gt;&lt;span&gt;}&lt;/span&gt;&lt;/p&gt;&lt;p&gt;layout(set = 0, binding = 1) uniform Time {&lt;span&gt;...&lt;/span&gt;&lt;span&gt;}&lt;/span&gt;&lt;/p&gt;&lt;p&gt;......&lt;/p&gt;&lt;p&gt;&lt;br&gt;&lt;/p&gt;&lt;p&gt;// Uniform - Model&lt;/p&gt;&lt;p&gt;layout(set = 1, binding = 0) uniform Model { ... }&lt;/p&gt;&lt;p&gt;&lt;br&gt;&lt;/p&gt;&lt;p&gt;// Uniform - Light&lt;/p&gt;&lt;p&gt;layout(set = 1, binding = 1) uniform Lights { ... }&lt;/p&gt;&lt;p&gt;&lt;br&gt;&lt;/p&gt;&lt;p&gt;// Uniform - Material&lt;/p&gt;&lt;p&gt;layout(set = 2, binding = 0) uniform Material { ... }&lt;/p&gt;&lt;p&gt;&lt;br&gt;&lt;/p&gt;&lt;p&gt;// Uniform - Material - Tex&lt;/p&gt;&lt;p&gt;layout(set = 3, binding = 0) uniform MaterialTex { ... }&lt;br&gt;&lt;/p&gt;&lt;p&gt;&lt;br&gt;&lt;/p&gt;&lt;p&gt;&lt;span style=&quot;background-color: rgb(0 , 127 , 255)&quot;&gt;// 手动拓展声明的 varying&lt;/span&gt;&lt;/p&gt;&lt;p&gt;...&lt;/p&gt;&lt;p&gt;&lt;br&gt;&lt;/p&gt;&lt;p&gt;// 公共变量、常量、方法&lt;/p&gt;&lt;p&gt;&lt;br&gt;&lt;/p&gt;&lt;p&gt;&lt;span style=&quot;background-color: rgb(0 , 127 , 255)&quot;&gt;// 手动拓展声明的 变量、常量、方法&lt;/span&gt;&lt;/p&gt;&lt;br&gt;&lt;p&gt;void main() {&lt;/p&gt;&lt;p&gt;&amp;nbsp; &amp;nbsp; // attribute 预处理&lt;/p&gt;&lt;p&gt;&lt;span&gt;&lt;/span&gt;&amp;nbsp; &amp;nbsp; vec3 A_POSITION = VA_POSITION;&lt;br&gt;&lt;/p&gt;&lt;p&gt;&lt;span&gt;&lt;/span&gt;&amp;nbsp; &amp;nbsp; vec2 A_UV = VA_UV;&lt;br&gt;&lt;/p&gt;&lt;p&gt;&lt;span&gt;&lt;/span&gt;&amp;nbsp; &amp;nbsp; vec4 A_COLOR = vec4(1., 1., 1., 1.);&lt;br&gt;&lt;/p&gt;&lt;p&gt;&lt;span&gt;&lt;/span&gt;&amp;nbsp; &amp;nbsp; // 实例化预处理&lt;/p&gt;&lt;p&gt;&amp;nbsp; &amp;nbsp; A_COLOR = A_COLOR * VA_INS_COLOR;&lt;br&gt;&lt;/p&gt;&lt;p&gt;&amp;nbsp; &amp;nbsp; ...&lt;/p&gt;&lt;p&gt;&amp;nbsp; &amp;nbsp; // 骨骼预处理&lt;/p&gt;&lt;p&gt;&amp;nbsp; &amp;nbsp; ...&lt;/p&gt;&lt;p&gt;&lt;br&gt;&lt;/p&gt;&lt;p&gt;&amp;nbsp; &amp;nbsp; &lt;span style=&quot;background-color: rgb(0 , 102 , 204)&quot;&gt;// 手动拓展的 效果代码&lt;/span&gt;&lt;/p&gt;&lt;p&gt;}&lt;/p&gt;" style="text;html=1;strokeColor=none;fillColor=none;spacing=5;spacingTop=-20;whiteSpace=wrap;overflow=hidden;rounded=0;fontSize=18;" vertex="1" parent="1">
                    <mxGeometry x="1597" y="-720" width="633" height="1880" as="geometry"/>
                </mxCell>
                <mxCell id="84" value="&lt;h1&gt;&lt;br&gt;&lt;/h1&gt;&lt;p&gt;&lt;span style=&quot;background-color: rgb(0 , 127 , 255)&quot;&gt;// defines&lt;/span&gt;&lt;/p&gt;&lt;p&gt;......&lt;/p&gt;&lt;p&gt;&lt;br&gt;&lt;/p&gt;&lt;p&gt;// Uniform - Scene - camera&lt;/p&gt;&lt;p&gt;layout(set = 0, binding = 0) uniform Camera {&lt;span&gt;...&lt;/span&gt;&lt;span&gt;}&lt;/span&gt;&lt;/p&gt;&lt;p&gt;layout(set = 0, binding = 1) uniform Time {&lt;span&gt;...&lt;/span&gt;&lt;span&gt;}&lt;/span&gt;&lt;/p&gt;&lt;p&gt;......&lt;/p&gt;&lt;p&gt;&lt;br&gt;&lt;/p&gt;&lt;p&gt;// Uniform - Model&lt;/p&gt;&lt;p&gt;layout(set = 1, binding = 0) uniform Model { ... }&lt;/p&gt;&lt;p&gt;&lt;br&gt;&lt;/p&gt;&lt;p&gt;// Uniform - Light&lt;/p&gt;&lt;p&gt;layout(set = 1, binding = 1) uniform Lights { ... }&lt;/p&gt;&lt;p&gt;&lt;br&gt;&lt;/p&gt;&lt;p&gt;// Uniform - Material&lt;/p&gt;&lt;p&gt;layout(set = 2, binding = 0) uniform Material { ... }&lt;/p&gt;&lt;p&gt;&lt;br&gt;&lt;/p&gt;&lt;p&gt;// Uniform - Material - Tex&lt;/p&gt;&lt;p&gt;layout(set = 3, binding = 0) uniform MaterialTex { ... }&lt;br&gt;&lt;/p&gt;&lt;p&gt;&lt;br&gt;&lt;/p&gt;&lt;p&gt;&lt;span style=&quot;background-color: rgb(0 , 127 , 255)&quot;&gt;// 手动拓展声明的 varying&lt;/span&gt;&lt;/p&gt;&lt;p&gt;...&lt;/p&gt;&lt;p&gt;&lt;br&gt;&lt;/p&gt;&lt;p&gt;// 公共变量、常量、方法&lt;/p&gt;&lt;p&gt;&lt;br&gt;&lt;/p&gt;&lt;p&gt;&lt;span style=&quot;background-color: rgb(0 , 127 , 255)&quot;&gt;// 手动拓展声明的 变量、常量、方法&lt;/span&gt;&lt;/p&gt;&lt;br&gt;&lt;p&gt;void main() {&lt;/p&gt;&lt;p&gt;&amp;nbsp; &amp;nbsp; &lt;span style=&quot;background-color: rgb(0 , 127 , 255)&quot;&gt;// 手动拓展的 效果代码&lt;/span&gt;&lt;/p&gt;&lt;p&gt;}&lt;/p&gt;" style="text;html=1;strokeColor=none;fillColor=none;spacing=5;spacingTop=-20;whiteSpace=wrap;overflow=hidden;rounded=0;fontSize=18;" vertex="1" parent="1">
                    <mxGeometry x="2320" y="-720" width="630" height="1360" as="geometry"/>
                </mxCell>
                <mxCell id="85" value="Shader 结构" style="text;strokeColor=none;fillColor=none;align=left;verticalAlign=middle;spacingLeft=4;spacingRight=4;overflow=hidden;points=[[0,0.5],[1,0.5]];portConstraint=eastwest;rotatable=0;fontSize=38;" vertex="1" parent="1">
                    <mxGeometry x="1480" y="-840" width="280" height="50" as="geometry"/>
                </mxCell>
            </root>
        </mxGraphModel>
    </diagram>
</mxfile>